<svg xmlns="http://www.w3.org/2000/svg" xmlns:xlink="http://www.w3.org/1999/xlink" id="body_1" preserveAspectRatio="xMinYMin meet" viewBox="0 0 793 1121"><defs><clipPath id="1"><path d="M0 841L0 -0.9200439L0 -0.9200439L595.32 -0.9200439L595.32 -0.9200439L595.32 841L595.32 841L0 841z" /></clipPath><clipPath id="2"><path d="M49.56 30.87994L135.12 30.87994L135.12 30.87994L135.12 150.7599L135.12 150.7599L49.56 150.7599z" /></clipPath></defs><g transform="matrix(1.333333 0 0 1.333333 0 0)"><g><g clip-path="url(#1)"><path transform="matrix(1 0 0 -1 0 841)" d="M14.16 832.8L171.36 832.8L171.36 832.8L171.36 667.6801L171.36 667.6801L14.16 667.6801z" stroke="none" fill="#BDD6EE" fill-rule="winding" /><path transform="matrix(1 0 0 -1 0 841)" d="M19.32 815.4L165.96 815.4L165.96 815.4L165.96 684.9601L165.96 684.9601L19.32 684.9601z" stroke="none" fill="#BDD6EE" fill-rule="winding" /><path transform="matrix(1 0 0 -1 0 841)" d="M171.36 832.8L396.36 832.8L396.36 832.8L396.36 667.6801L396.36 667.6801L171.36 667.6801z" stroke="none" fill="#BDD6EE" fill-rule="winding" /><path transform="matrix(1 0 0 -1 0 841)" d="M176.76 790.92L390.96 790.92L390.96 790.92L390.96 742.0801L390.96 742.0801L176.76 742.0801z" stroke="none" fill="#BDD6EE" fill-rule="winding" /><path transform="matrix(1 0 0 -1 0 841)" d="M176.76 742.0801L390.96 742.0801L390.96 742.0801L390.96 709.4401L390.96 709.4401L176.76 709.4401z" stroke="none" fill="#BDD6EE" fill-rule="winding" /><path transform="matrix(1 0 0 -1 0 841)" d="M396.36 832.8L589.2 832.8L589.2 832.8L589.2 667.6801L589.2 667.6801L396.36 667.6801z" stroke="none" fill="#1F4E79" fill-rule="winding" /><path transform="matrix(1 0 0 -1 0 841)" d="M401.76 813.0001L584.04 813.0001L584.04 813.0001L584.04 797.04L584.04 797.04L401.76 797.04z" stroke="none" fill="#1F4E79" fill-rule="winding" /><path transform="matrix(1 0 0 -1 0 841)" d="M401.76 797.04L584.04 797.04L584.04 797.04L584.04 769.5601L584.04 769.5601L401.76 769.5601z" stroke="none" fill="#1F4E79" fill-rule="winding" /><path transform="matrix(1 0 0 -1 0 841)" d="M401.76 769.5601L584.04 769.5601L584.04 769.5601L584.04 742.2001L584.04 742.2001L401.76 742.2001z" stroke="none" fill="#1F4E79" fill-rule="winding" /><path transform="matrix(1 0 0 -1 0 841)" d="M401.76 742.2001L584.04 742.2001L584.04 742.2001L584.04 714.84L584.04 714.84L401.76 714.84z" stroke="none" fill="#1F4E79" fill-rule="winding" /><path transform="matrix(1 0 0 -1 0 841)" d="M401.76 714.84L584.04 714.84L584.04 714.84L584.04 687.36L584.04 687.36L401.76 687.36z" stroke="none" fill="#1F4E79" fill-rule="winding" /><path transform="matrix(1 0 0 -1 0 841)" d="M13.68 833.28L589.2 833.28L589.2 833.28L589.2 832.8L589.2 832.8L13.68 832.8z" stroke="none" fill="#E7E6E6" fill-rule="evenodd" /><path transform="matrix(1 0 0 -1 0 841)" d="M13.68 832.8L14.16 832.8L14.16 832.8L14.16 667.6801L14.16 667.6801L13.68 667.6801zM589.2 833.28L589.68 833.28L589.68 833.28L589.68 832.8L589.68 832.8L589.2 832.8z" stroke="none" fill="#E7E6E6" fill-rule="evenodd" /><path transform="matrix(1 0 0 -1 0 841)" d="M589.2 832.8L589.68 832.8L589.68 832.8L589.68 667.6801L589.68 667.6801L589.2 667.6801z" stroke="none" fill="#E7E6E6" fill-rule="winding" /><path transform="matrix(1 0 0 -1 0 841)" d="M14.16 667.6801L171.36 667.6801L171.36 667.6801L171.36 599.4L171.36 599.4L14.16 599.4z" stroke="none" fill="#FFFFFF" fill-rule="winding" /><path transform="matrix(1 0 0 -1 0 841)" d="M19.32 667.6801L165.96 667.6801L165.96 667.6801L165.96 626.88L165.96 626.88L19.32 626.88z" stroke="none" fill="#FFFFFF" fill-rule="winding" /><path transform="matrix(1 0 0 -1 0 841)" d="M171.36 667.6801L589.2 667.6801L589.2 667.6801L589.2 599.4L589.2 599.4L171.36 599.4z" stroke="none" fill="#FFFFFF" fill-rule="winding" /><path transform="matrix(1 0 0 -1 0 841)" d="M176.76 667.6801L584.04 667.6801L584.04 667.6801L584.04 639.48L584.04 639.48L176.76 639.48z" stroke="none" fill="#FFFFFF" fill-rule="winding" /><path transform="matrix(1 0 0 -1 0 841)" d="M176.76 639.48L584.04 639.48L584.04 639.48L584.04 619.4401L584.04 619.4401L176.76 619.4401z" stroke="none" fill="#FFFFFF" fill-rule="winding" /><path transform="matrix(1 0 0 -1 0 841)" d="M589.2 667.6801L589.68 667.6801L589.68 667.6801L589.68 599.4L589.68 599.4L589.2 599.4zM13.68 667.6801L14.16 667.6801L14.16 667.6801L14.16 599.4L14.16 599.4L13.68 599.4z" stroke="none" fill="#E7E6E6" fill-rule="evenodd" /><path transform="matrix(1 0 0 -1 0 841)" d="M14.16 599.4L171.36 599.4L171.36 599.4L171.36 169.92L171.36 169.92L14.16 169.92z" stroke="none" fill="#FFFFFF" fill-rule="winding" /><path transform="matrix(1 0 0 -1 0 841)" d="M19.32 599.4L165.96 599.4L165.96 599.4L165.96 558.6L165.96 558.6L19.32 558.6z" stroke="none" fill="#FFFFFF" fill-rule="winding" /><path transform="matrix(1 0 0 -1 0 841)" d="M19.32 558.6L165.96 558.6L165.96 558.6L165.96 526.0801L165.96 526.0801L19.32 526.0801z" stroke="none" fill="#FFFFFF" fill-rule="winding" /><path transform="matrix(1 0 0 -1 0 841)" d="M171.36 599.4L589.2 599.4L589.2 599.4L589.2 169.92L589.2 169.92L171.36 169.92z" stroke="none" fill="#FFFFFF" fill-rule="winding" /><path transform="matrix(1 0 0 -1 0 841)" d="M176.76 599.4L584.04 599.4L584.04 599.4L584.04 579.36L584.04 579.36L176.76 579.36z" stroke="none" fill="#FFFFFF" fill-rule="winding" /><path transform="matrix(1 0 0 -1 0 841)" d="M176.76 579.36L584.04 579.36L584.04 579.36L584.04 559.3201L584.04 559.3201L176.76 559.3201z" stroke="none" fill="#FFFFFF" fill-rule="winding" /><path transform="matrix(1 0 0 -1 0 841)" d="M176.76 559.3201L584.04 559.3201L584.04 559.3201L584.04 539.4L584.04 539.4L176.76 539.4z" stroke="none" fill="#FFFFFF" fill-rule="winding" /><path transform="matrix(1 0 0 -1 0 841)" d="M176.76 539.4L584.04 539.4L584.04 539.4L584.04 519.36L584.04 519.36L176.76 519.36z" stroke="none" fill="#FFFFFF" fill-rule="winding" /><path transform="matrix(1 0 0 -1 0 841)" d="M176.76 519.36L584.04 519.36L584.04 519.36L584.04 499.3201L584.04 499.3201L176.76 499.3201z" stroke="none" fill="#FFFFFF" fill-rule="winding" /><path transform="matrix(1 0 0 -1 0 841)" d="M176.76 499.3201L584.04 499.3201L584.04 499.3201L584.04 479.4001L584.04 479.4001L176.76 479.4001z" stroke="none" fill="#FFFFFF" fill-rule="winding" /><path transform="matrix(1 0 0 -1 0 841)" d="M176.76 479.4001L584.04 479.4001L584.04 479.4001L584.04 459.36L584.04 459.36L176.76 459.36z" stroke="none" fill="#FFFFFF" fill-rule="winding" /><path transform="matrix(1 0 0 -1 0 841)" d="M176.76 459.36L584.04 459.36L584.04 459.36L584.04 439.3201L584.04 439.3201L176.76 439.3201z" stroke="none" fill="#FFFFFF" fill-rule="winding" /><path transform="matrix(1 0 0 -1 0 841)" d="M176.76 439.3201L584.04 439.3201L584.04 439.3201L584.04 419.4001L584.04 419.4001L176.76 419.4001z" stroke="none" fill="#FFFFFF" fill-rule="winding" /><path transform="matrix(1 0 0 -1 0 841)" d="M176.76 419.4001L584.04 419.4001L584.04 419.4001L584.04 399.36L584.04 399.36L176.76 399.36z" stroke="none" fill="#FFFFFF" fill-rule="winding" /><path transform="matrix(1 0 0 -1 0 841)" d="M176.76 399.36L584.04 399.36L584.04 399.36L584.04 379.3201L584.04 379.3201L176.76 379.3201z" stroke="none" fill="#FFFFFF" fill-rule="winding" /><path transform="matrix(1 0 0 -1 0 841)" d="M242.4 380.8801L451.8 380.8801L451.8 380.8801L451.8 380.28L451.8 380.28L242.4 380.28z" stroke="none" fill="#0563C1" fill-rule="winding" /><path transform="matrix(1 0 0 -1 0 841)" d="M176.76 379.3201L584.04 379.3201L584.04 379.3201L584.04 359.4001L584.04 359.4001L176.76 359.4001z" stroke="none" fill="#FFFFFF" fill-rule="winding" /><path transform="matrix(1 0 0 -1 0 841)" d="M176.76 359.4001L584.04 359.4001L584.04 359.4001L584.04 339.36L584.04 339.36L176.76 339.36z" stroke="none" fill="#FFFFFF" fill-rule="winding" /><path transform="matrix(1 0 0 -1 0 841)" d="M176.76 339.36L584.04 339.36L584.04 339.36L584.04 319.3201L584.04 319.3201L176.76 319.3201z" stroke="none" fill="#FFFFFF" fill-rule="winding" /><path transform="matrix(1 0 0 -1 0 841)" d="M176.76 319.3201L584.04 319.3201L584.04 319.3201L584.04 299.4L584.04 299.4L176.76 299.4z" stroke="none" fill="#FFFFFF" fill-rule="winding" /><path transform="matrix(1 0 0 -1 0 841)" d="M176.76 299.4L584.04 299.4L584.04 299.4L584.04 279.36L584.04 279.36L176.76 279.36z" stroke="none" fill="#FFFFFF" fill-rule="winding" /><path transform="matrix(1 0 0 -1 0 841)" d="M176.76 279.36L584.04 279.36L584.04 279.36L584.04 259.3201L584.04 259.3201L176.76 259.3201z" stroke="none" fill="#FFFFFF" fill-rule="winding" /><path transform="matrix(1 0 0 -1 0 841)" d="M176.76 259.3201L584.04 259.3201L584.04 259.3201L584.04 239.4L584.04 239.4L176.76 239.4z" stroke="none" fill="#FFFFFF" fill-rule="winding" /><path transform="matrix(1 0 0 -1 0 841)" d="M176.76 239.4L584.04 239.4L584.04 239.4L584.04 219.36L584.04 219.36L176.76 219.36z" stroke="none" fill="#FFFFFF" fill-rule="winding" /><path transform="matrix(1 0 0 -1 0 841)" d="M245.64 220.92L555 220.92L555 220.92L555 220.3201L555 220.3201L245.64 220.3201z" stroke="none" fill="#0563C1" fill-rule="winding" /><path transform="matrix(1 0 0 -1 0 841)" d="M176.76 219.36L584.04 219.36L584.04 219.36L584.04 199.3201L584.04 199.3201L176.76 199.3201z" stroke="none" fill="#FFFFFF" fill-rule="winding" /><path transform="matrix(1 0 0 -1 0 841)" d="M176.76 199.3201L584.04 199.3201L584.04 199.3201L584.04 179.4L584.04 179.4L176.76 179.4z" stroke="none" fill="#FFFFFF" fill-rule="winding" /><path transform="matrix(1 0 0 -1 0 841)" d="M589.2 599.4L589.68 599.4L589.68 599.4L589.68 169.92L589.68 169.92L589.2 169.92zM13.68 599.4L14.16 599.4L14.16 599.4L14.16 169.92L14.16 169.92L13.68 169.92z" stroke="none" fill="#E7E6E6" fill-rule="evenodd" /><path transform="matrix(1 0 0 -1 0 841)" d="M14.16 169.92L171.36 169.92L171.36 169.92L171.36 55.68005L171.36 55.68005L14.16 55.68005z" stroke="none" fill="#FFFFFF" fill-rule="winding" /><path transform="matrix(1 0 0 -1 0 841)" d="M19.32 169.92L165.96 169.92L165.96 169.92L165.96 129.2401L165.96 129.2401L19.32 129.2401z" stroke="none" fill="#FFFFFF" fill-rule="winding" /><path transform="matrix(1 0 0 -1 0 841)" d="M171.36 169.92L368.16 169.92L368.16 169.92L368.16 55.68005L368.16 55.68005L171.36 55.68005z" stroke="none" fill="#FFFFFF" fill-rule="winding" /><path transform="matrix(1 0 0 -1 0 841)" d="M176.76 142.8L362.76 142.8L362.76 142.8L362.76 122.76L362.76 122.76L176.76 122.76z" stroke="none" fill="#FFFFFF" fill-rule="winding" /><path transform="matrix(1 0 0 -1 0 841)" d="M176.76 122.76L362.76 122.76L362.76 122.76L362.76 102.84L362.76 102.84L176.76 102.84z" stroke="none" fill="#FFFFFF" fill-rule="winding" /><path transform="matrix(1 0 0 -1 0 841)" d="M176.76 102.84L362.76 102.84L362.76 102.84L362.76 82.80005L362.76 82.80005L176.76 82.80005z" stroke="none" fill="#FFFFFF" fill-rule="winding" /><path transform="matrix(1 0 0 -1 0 841)" d="M368.16 169.92L589.2 169.92L589.2 169.92L589.2 55.68005L589.2 55.68005L368.16 55.68005z" stroke="none" fill="#FFFFFF" fill-rule="winding" /><path transform="matrix(1 0 0 -1 0 841)" d="M373.56 132.84L584.04 132.84L584.04 132.84L584.04 112.8L584.04 112.8L373.56 112.8z" stroke="none" fill="#FFFFFF" fill-rule="winding" /><path transform="matrix(1 0 0 -1 0 841)" d="M373.56 112.8L584.04 112.8L584.04 112.8L584.04 92.76001L584.04 92.76001L373.56 92.76001z" stroke="none" fill="#FFFFFF" fill-rule="winding" /><path transform="matrix(1 0 0 -1 0 841)" d="M589.2 169.92L589.68 169.92L589.68 169.92L589.68 55.68005L589.68 55.68005L589.2 55.68005zM13.68 169.92L14.16 169.92L14.16 169.92L14.16 55.68005L14.16 55.68005L13.68 55.68005z" stroke="none" fill="#E7E6E6" fill-rule="evenodd" /><path transform="matrix(1 0 0 -1 0 841)" d="M13.92 55.68005L171.36 55.68005L171.36 55.68005L171.36 42.36011L171.36 42.36011L13.92 42.36011z" stroke="none" fill="#2E74B5" fill-rule="winding" /><path transform="matrix(1 0 0 -1 0 841)" d="M19.32 55.68005L165.96 55.68005L165.96 55.68005L165.96 53.88007L165.96 53.88007L19.32 53.88007z" stroke="none" fill="#2E74B5" fill-rule="winding" /><path transform="matrix(1 0 0 -1 0 841)" d="M171.36 55.68005L589.44 55.68005L589.44 55.68005L589.44 42.36011L589.44 42.36011L171.36 42.36011z" stroke="none" fill="#2E74B5" fill-rule="winding" /><path transform="matrix(1 0 0 -1 0 841)" d="M176.76 55.68005L584.04 55.68005L584.04 55.68005L584.04 53.88007L584.04 53.88007L176.76 53.88007z" stroke="none" fill="#2E74B5" fill-rule="winding" /><g clip-path="url(#2)"><g transform="matrix(0.3265649 0 0 0.327541 49.56 30.87994)"><g transform="matrix(1 0 0 1 0 0)"><image x="0" y="0" xlink:href="img_01.png" width="262" height="366" /></g></g></g><path transform="matrix(1 0 0 -1 0 841)" d="M176.52 600.2401L566.52 600.2401" stroke="#5B9BD5" stroke-width="0.48" fill="none" /><path transform="matrix(1 0 0 -1 0 841)" d="M176.52 166.6801L566.52 166.6801" stroke="#5B9BD5" stroke-width="0.48" fill="none" /></g></g></g></svg>